<mxfile host="app.diagrams.net" modified="2022-04-26T03:42:56.848Z" agent="5.0 (Windows NT 10.0; Win64; x64) AppleWebKit/537.36 (KHTML, like Gecko) Chrome/100.0.4896.127 Safari/537.36" etag="48Wl_2LZtVhxCwd_ueNu" version="17.4.6" type="github">
  <diagram id="l4ejdYEq1hXE6AxVtthA" name="Page-1">
    <mxGraphModel dx="1757" dy="474" grid="1" gridSize="10" guides="1" tooltips="1" connect="1" arrows="1" fold="1" page="1" pageScale="1" pageWidth="850" pageHeight="1100" math="0" shadow="0">
      <root>
        <mxCell id="0" />
        <mxCell id="1" parent="0" />
        <mxCell id="cFg4it5Un85z_77vq7gC-253" value="LIBROS" style="swimlane;fontStyle=0;childLayout=stackLayout;horizontal=1;startSize=26;horizontalStack=0;resizeParent=1;resizeParentMax=0;resizeLast=0;collapsible=1;marginBottom=0;align=center;fontSize=14;strokeColor=default;fillColor=none;" parent="1" vertex="1">
          <mxGeometry x="310" y="70" width="190" height="386" as="geometry" />
        </mxCell>
        <mxCell id="cFg4it5Un85z_77vq7gC-254" value="PK    ID" style="text;strokeColor=none;fillColor=none;spacingLeft=4;spacingRight=4;overflow=hidden;rotatable=0;points=[[0,0.5],[1,0.5]];portConstraint=eastwest;fontSize=12;" parent="cFg4it5Un85z_77vq7gC-253" vertex="1">
          <mxGeometry y="26" width="190" height="30" as="geometry" />
        </mxCell>
        <mxCell id="cFg4it5Un85z_77vq7gC-255" value="TITULO NOT NULL" style="text;strokeColor=none;fillColor=none;spacingLeft=4;spacingRight=4;overflow=hidden;rotatable=0;points=[[0,0.5],[1,0.5]];portConstraint=eastwest;fontSize=12;" parent="cFg4it5Un85z_77vq7gC-253" vertex="1">
          <mxGeometry y="56" width="190" height="30" as="geometry" />
        </mxCell>
        <mxCell id="cFg4it5Un85z_77vq7gC-258" value="IDIOMA NULL AUTONUM" style="text;strokeColor=none;fillColor=none;spacingLeft=4;spacingRight=4;overflow=hidden;rotatable=0;points=[[0,0.5],[1,0.5]];portConstraint=eastwest;fontSize=12;" parent="cFg4it5Un85z_77vq7gC-253" vertex="1">
          <mxGeometry y="86" width="190" height="30" as="geometry" />
        </mxCell>
        <mxCell id="cFg4it5Un85z_77vq7gC-259" value="PAGINA NOT NULL" style="text;strokeColor=none;fillColor=none;spacingLeft=4;spacingRight=4;overflow=hidden;rotatable=0;points=[[0,0.5],[1,0.5]];portConstraint=eastwest;fontSize=12;" parent="cFg4it5Un85z_77vq7gC-253" vertex="1">
          <mxGeometry y="116" width="190" height="30" as="geometry" />
        </mxCell>
        <mxCell id="cFg4it5Un85z_77vq7gC-256" value="IDAUTOR NULL" style="text;strokeColor=none;fillColor=none;spacingLeft=4;spacingRight=4;overflow=hidden;rotatable=0;points=[[0,0.5],[1,0.5]];portConstraint=eastwest;fontSize=12;" parent="cFg4it5Un85z_77vq7gC-253" vertex="1">
          <mxGeometry y="146" width="190" height="30" as="geometry" />
        </mxCell>
        <mxCell id="cFg4it5Un85z_77vq7gC-261" value="ANIO" style="text;strokeColor=none;fillColor=none;spacingLeft=4;spacingRight=4;overflow=hidden;rotatable=0;points=[[0,0.5],[1,0.5]];portConstraint=eastwest;fontSize=12;" parent="cFg4it5Un85z_77vq7gC-253" vertex="1">
          <mxGeometry y="176" width="190" height="30" as="geometry" />
        </mxCell>
        <mxCell id="cFg4it5Un85z_77vq7gC-262" value="EDITORIAL NULL" style="text;strokeColor=none;fillColor=none;spacingLeft=4;spacingRight=4;overflow=hidden;rotatable=0;points=[[0,0.5],[1,0.5]];portConstraint=eastwest;fontSize=12;" parent="cFg4it5Un85z_77vq7gC-253" vertex="1">
          <mxGeometry y="206" width="190" height="30" as="geometry" />
        </mxCell>
        <mxCell id="cFg4it5Un85z_77vq7gC-263" value="IDGENERO NULL AUTONUM" style="text;strokeColor=none;fillColor=none;spacingLeft=4;spacingRight=4;overflow=hidden;rotatable=0;points=[[0,0.5],[1,0.5]];portConstraint=eastwest;fontSize=12;" parent="cFg4it5Un85z_77vq7gC-253" vertex="1">
          <mxGeometry y="236" width="190" height="30" as="geometry" />
        </mxCell>
        <mxCell id="cFg4it5Un85z_77vq7gC-260" value="IDAUTOR NULL" style="text;strokeColor=none;fillColor=none;spacingLeft=4;spacingRight=4;overflow=hidden;rotatable=0;points=[[0,0.5],[1,0.5]];portConstraint=eastwest;fontSize=12;" parent="cFg4it5Un85z_77vq7gC-253" vertex="1">
          <mxGeometry y="266" width="190" height="30" as="geometry" />
        </mxCell>
        <mxCell id="EzbBKyo-ywwA_1F8Rt0_-35" value="FORMATO" style="text;strokeColor=none;fillColor=none;spacingLeft=4;spacingRight=4;overflow=hidden;rotatable=0;points=[[0,0.5],[1,0.5]];portConstraint=eastwest;fontSize=12;" vertex="1" parent="cFg4it5Un85z_77vq7gC-253">
          <mxGeometry y="296" width="190" height="30" as="geometry" />
        </mxCell>
        <mxCell id="EzbBKyo-ywwA_1F8Rt0_-36" value="GRADODEVALORACION NULL" style="text;strokeColor=none;fillColor=none;spacingLeft=4;spacingRight=4;overflow=hidden;rotatable=0;points=[[0,0.5],[1,0.5]];portConstraint=eastwest;fontSize=12;" vertex="1" parent="cFg4it5Un85z_77vq7gC-253">
          <mxGeometry y="326" width="190" height="30" as="geometry" />
        </mxCell>
        <mxCell id="EzbBKyo-ywwA_1F8Rt0_-37" value="GRADODECONSERVACION" style="text;strokeColor=none;fillColor=none;spacingLeft=4;spacingRight=4;overflow=hidden;rotatable=0;points=[[0,0.5],[1,0.5]];portConstraint=eastwest;fontSize=12;" vertex="1" parent="cFg4it5Un85z_77vq7gC-253">
          <mxGeometry y="356" width="190" height="30" as="geometry" />
        </mxCell>
        <mxCell id="cFg4it5Un85z_77vq7gC-264" value="" style="edgeStyle=entityRelationEdgeStyle;fontSize=12;html=1;endArrow=ERzeroToMany;endFill=1;rounded=0;entryX=0;entryY=0.5;entryDx=0;entryDy=0;" parent="1" source="cFg4it5Un85z_77vq7gC-266" target="cFg4it5Un85z_77vq7gC-262" edge="1">
          <mxGeometry width="100" height="100" relative="1" as="geometry">
            <mxPoint x="150" y="516" as="sourcePoint" />
            <mxPoint x="210" y="366" as="targetPoint" />
          </mxGeometry>
        </mxCell>
        <mxCell id="cFg4it5Un85z_77vq7gC-265" value="EDITORIALES" style="swimlane;fontStyle=0;childLayout=stackLayout;horizontal=1;startSize=26;horizontalStack=0;resizeParent=1;resizeParentMax=0;resizeLast=0;collapsible=1;marginBottom=0;align=center;fontSize=14;strokeColor=default;fillColor=none;" parent="1" vertex="1">
          <mxGeometry x="50" y="573" width="160" height="86" as="geometry" />
        </mxCell>
        <mxCell id="cFg4it5Un85z_77vq7gC-266" value="IDEDITORIAL" style="text;strokeColor=none;fillColor=none;spacingLeft=4;spacingRight=4;overflow=hidden;rotatable=0;points=[[0,0.5],[1,0.5]];portConstraint=eastwest;fontSize=12;" parent="cFg4it5Un85z_77vq7gC-265" vertex="1">
          <mxGeometry y="26" width="160" height="30" as="geometry" />
        </mxCell>
        <mxCell id="cFg4it5Un85z_77vq7gC-267" value="EDITORIAL" style="text;strokeColor=none;fillColor=none;spacingLeft=4;spacingRight=4;overflow=hidden;rotatable=0;points=[[0,0.5],[1,0.5]];portConstraint=eastwest;fontSize=12;" parent="cFg4it5Un85z_77vq7gC-265" vertex="1">
          <mxGeometry y="56" width="160" height="30" as="geometry" />
        </mxCell>
        <mxCell id="cFg4it5Un85z_77vq7gC-269" value="IDIOMAS" style="swimlane;fontStyle=0;childLayout=stackLayout;horizontal=1;startSize=26;horizontalStack=0;resizeParent=1;resizeParentMax=0;resizeLast=0;collapsible=1;marginBottom=0;align=center;fontSize=14;strokeColor=default;fillColor=none;" parent="1" vertex="1">
          <mxGeometry x="-35" y="476" width="160" height="86" as="geometry" />
        </mxCell>
        <mxCell id="cFg4it5Un85z_77vq7gC-270" value="IDIIDIOMA" style="text;strokeColor=none;fillColor=none;spacingLeft=4;spacingRight=4;overflow=hidden;rotatable=0;points=[[0,0.5],[1,0.5]];portConstraint=eastwest;fontSize=12;" parent="cFg4it5Un85z_77vq7gC-269" vertex="1">
          <mxGeometry y="26" width="160" height="30" as="geometry" />
        </mxCell>
        <mxCell id="cFg4it5Un85z_77vq7gC-271" value="IDIOMA" style="text;strokeColor=none;fillColor=none;spacingLeft=4;spacingRight=4;overflow=hidden;rotatable=0;points=[[0,0.5],[1,0.5]];portConstraint=eastwest;fontSize=12;" parent="cFg4it5Un85z_77vq7gC-269" vertex="1">
          <mxGeometry y="56" width="160" height="30" as="geometry" />
        </mxCell>
        <mxCell id="cFg4it5Un85z_77vq7gC-275" value="" style="edgeStyle=entityRelationEdgeStyle;fontSize=12;html=1;endArrow=ERzeroToMany;endFill=1;rounded=0;" parent="1" source="cFg4it5Un85z_77vq7gC-270" target="cFg4it5Un85z_77vq7gC-258" edge="1">
          <mxGeometry width="100" height="100" relative="1" as="geometry">
            <mxPoint x="140" y="459" as="sourcePoint" />
            <mxPoint x="210" y="266.0000000000001" as="targetPoint" />
          </mxGeometry>
        </mxCell>
        <mxCell id="cFg4it5Un85z_77vq7gC-276" value="AUTORES" style="swimlane;fontStyle=0;childLayout=stackLayout;horizontal=1;startSize=26;horizontalStack=0;resizeParent=1;resizeParentMax=0;resizeLast=0;collapsible=1;marginBottom=0;align=center;fontSize=14;strokeColor=default;fillColor=none;" parent="1" vertex="1">
          <mxGeometry x="-110" y="260" width="160" height="176" as="geometry" />
        </mxCell>
        <mxCell id="cFg4it5Un85z_77vq7gC-277" value="IDUTOR" style="text;strokeColor=none;fillColor=none;spacingLeft=4;spacingRight=4;overflow=hidden;rotatable=0;points=[[0,0.5],[1,0.5]];portConstraint=eastwest;fontSize=12;" parent="cFg4it5Un85z_77vq7gC-276" vertex="1">
          <mxGeometry y="26" width="160" height="30" as="geometry" />
        </mxCell>
        <mxCell id="cFg4it5Un85z_77vq7gC-279" value="FECHANAC" style="text;strokeColor=none;fillColor=none;spacingLeft=4;spacingRight=4;overflow=hidden;rotatable=0;points=[[0,0.5],[1,0.5]];portConstraint=eastwest;fontSize=12;" parent="cFg4it5Un85z_77vq7gC-276" vertex="1">
          <mxGeometry y="56" width="160" height="30" as="geometry" />
        </mxCell>
        <mxCell id="cFg4it5Un85z_77vq7gC-78" value="SEXO" style="shape=partialRectangle;connectable=0;fillColor=none;top=0;left=0;bottom=0;right=0;align=left;spacingLeft=6;overflow=hidden;" parent="cFg4it5Un85z_77vq7gC-276" vertex="1">
          <mxGeometry y="86" width="160" height="30" as="geometry">
            <mxRectangle width="150" height="30" as="alternateBounds" />
          </mxGeometry>
        </mxCell>
        <mxCell id="cFg4it5Un85z_77vq7gC-79" value="PAIS" style="shape=partialRectangle;connectable=0;fillColor=none;top=0;left=0;bottom=0;right=0;align=left;spacingLeft=6;overflow=hidden;" parent="cFg4it5Un85z_77vq7gC-276" vertex="1">
          <mxGeometry y="116" width="160" height="30" as="geometry">
            <mxRectangle width="150" height="30" as="alternateBounds" />
          </mxGeometry>
        </mxCell>
        <mxCell id="cFg4it5Un85z_77vq7gC-278" value="APENOM" style="text;strokeColor=none;fillColor=none;spacingLeft=4;spacingRight=4;overflow=hidden;rotatable=0;points=[[0,0.5],[1,0.5]];portConstraint=eastwest;fontSize=12;" parent="cFg4it5Un85z_77vq7gC-276" vertex="1">
          <mxGeometry y="146" width="160" height="30" as="geometry" />
        </mxCell>
        <mxCell id="cFg4it5Un85z_77vq7gC-280" value="GENEROS" style="swimlane;fontStyle=0;childLayout=stackLayout;horizontal=1;startSize=26;horizontalStack=0;resizeParent=1;resizeParentMax=0;resizeLast=0;collapsible=1;marginBottom=0;align=center;fontSize=14;strokeColor=default;fillColor=none;" parent="1" vertex="1">
          <mxGeometry x="-100" y="140" width="160" height="86" as="geometry" />
        </mxCell>
        <mxCell id="cFg4it5Un85z_77vq7gC-281" value="IDGENERO" style="text;strokeColor=none;fillColor=none;spacingLeft=4;spacingRight=4;overflow=hidden;rotatable=0;points=[[0,0.5],[1,0.5]];portConstraint=eastwest;fontSize=12;" parent="cFg4it5Un85z_77vq7gC-280" vertex="1">
          <mxGeometry y="26" width="160" height="30" as="geometry" />
        </mxCell>
        <mxCell id="cFg4it5Un85z_77vq7gC-283" value="GENERO" style="text;strokeColor=none;fillColor=none;spacingLeft=4;spacingRight=4;overflow=hidden;rotatable=0;points=[[0,0.5],[1,0.5]];portConstraint=eastwest;fontSize=12;" parent="cFg4it5Un85z_77vq7gC-280" vertex="1">
          <mxGeometry y="56" width="160" height="30" as="geometry" />
        </mxCell>
        <mxCell id="cFg4it5Un85z_77vq7gC-284" value="" style="edgeStyle=entityRelationEdgeStyle;fontSize=12;html=1;endArrow=ERzeroToMany;endFill=1;rounded=0;" parent="1" source="cFg4it5Un85z_77vq7gC-277" target="cFg4it5Un85z_77vq7gC-256" edge="1">
          <mxGeometry width="100" height="100" relative="1" as="geometry">
            <mxPoint x="140" y="514" as="sourcePoint" />
            <mxPoint x="260" y="295.9999999999999" as="targetPoint" />
          </mxGeometry>
        </mxCell>
        <mxCell id="cFg4it5Un85z_77vq7gC-285" value="" style="edgeStyle=entityRelationEdgeStyle;fontSize=12;html=1;endArrow=ERzeroToMany;endFill=1;rounded=0;" parent="1" source="cFg4it5Un85z_77vq7gC-281" target="cFg4it5Un85z_77vq7gC-263" edge="1">
          <mxGeometry width="100" height="100" relative="1" as="geometry">
            <mxPoint x="80" y="327" as="sourcePoint" />
            <mxPoint x="270" y="305.9999999999999" as="targetPoint" />
          </mxGeometry>
        </mxCell>
        <mxCell id="EzbBKyo-ywwA_1F8Rt0_-1" value="USUARIOS" style="swimlane;fontStyle=0;childLayout=stackLayout;horizontal=1;startSize=26;horizontalStack=0;resizeParent=1;resizeParentMax=0;resizeLast=0;collapsible=1;marginBottom=0;align=center;fontSize=14;strokeColor=default;fillColor=none;" vertex="1" parent="1">
          <mxGeometry x="1070" y="45" width="170" height="296" as="geometry" />
        </mxCell>
        <mxCell id="EzbBKyo-ywwA_1F8Rt0_-2" value="PK    IDUSUARIO" style="text;strokeColor=none;fillColor=none;spacingLeft=4;spacingRight=4;overflow=hidden;rotatable=0;points=[[0,0.5],[1,0.5]];portConstraint=eastwest;fontSize=12;" vertex="1" parent="EzbBKyo-ywwA_1F8Rt0_-1">
          <mxGeometry y="26" width="170" height="30" as="geometry" />
        </mxCell>
        <mxCell id="EzbBKyo-ywwA_1F8Rt0_-3" value="NOMBRE NOT NULL" style="text;strokeColor=none;fillColor=none;spacingLeft=4;spacingRight=4;overflow=hidden;rotatable=0;points=[[0,0.5],[1,0.5]];portConstraint=eastwest;fontSize=12;" vertex="1" parent="EzbBKyo-ywwA_1F8Rt0_-1">
          <mxGeometry y="56" width="170" height="30" as="geometry" />
        </mxCell>
        <mxCell id="EzbBKyo-ywwA_1F8Rt0_-4" value="APELLIDO NOT NULL" style="shape=partialRectangle;connectable=0;fillColor=none;top=0;left=0;bottom=0;right=0;align=left;spacingLeft=6;overflow=hidden;" vertex="1" parent="EzbBKyo-ywwA_1F8Rt0_-1">
          <mxGeometry y="86" width="170" height="30" as="geometry">
            <mxRectangle width="150" height="30" as="alternateBounds" />
          </mxGeometry>
        </mxCell>
        <mxCell id="EzbBKyo-ywwA_1F8Rt0_-5" value="EMAIL UNIQUE" style="shape=partialRectangle;connectable=0;fillColor=none;top=0;left=0;bottom=0;right=0;align=left;spacingLeft=6;overflow=hidden;" vertex="1" parent="EzbBKyo-ywwA_1F8Rt0_-1">
          <mxGeometry y="116" width="170" height="30" as="geometry">
            <mxRectangle width="150" height="30" as="alternateBounds" />
          </mxGeometry>
        </mxCell>
        <mxCell id="EzbBKyo-ywwA_1F8Rt0_-7" value="PAIS NOT NULL" style="text;strokeColor=none;fillColor=none;spacingLeft=4;spacingRight=4;overflow=hidden;rotatable=0;points=[[0,0.5],[1,0.5]];portConstraint=eastwest;fontSize=12;" vertex="1" parent="EzbBKyo-ywwA_1F8Rt0_-1">
          <mxGeometry y="146" width="170" height="30" as="geometry" />
        </mxCell>
        <mxCell id="EzbBKyo-ywwA_1F8Rt0_-13" value="FECHAREG  GETDATE" style="text;strokeColor=none;fillColor=none;spacingLeft=4;spacingRight=4;overflow=hidden;rotatable=0;points=[[0,0.5],[1,0.5]];portConstraint=eastwest;fontSize=12;" vertex="1" parent="EzbBKyo-ywwA_1F8Rt0_-1">
          <mxGeometry y="176" width="170" height="30" as="geometry" />
        </mxCell>
        <mxCell id="EzbBKyo-ywwA_1F8Rt0_-8" value="TIPODEUSUARIO NOT NULL" style="text;strokeColor=none;fillColor=none;spacingLeft=4;spacingRight=4;overflow=hidden;rotatable=0;points=[[0,0.5],[1,0.5]];portConstraint=eastwest;fontSize=12;" vertex="1" parent="EzbBKyo-ywwA_1F8Rt0_-1">
          <mxGeometry y="206" width="170" height="30" as="geometry" />
        </mxCell>
        <mxCell id="EzbBKyo-ywwA_1F8Rt0_-17" value="GENERO NULL" style="text;strokeColor=none;fillColor=none;spacingLeft=4;spacingRight=4;overflow=hidden;rotatable=0;points=[[0,0.5],[1,0.5]];portConstraint=eastwest;fontSize=12;" vertex="1" parent="EzbBKyo-ywwA_1F8Rt0_-1">
          <mxGeometry y="236" width="170" height="30" as="geometry" />
        </mxCell>
        <mxCell id="EzbBKyo-ywwA_1F8Rt0_-18" value="FECHANAC" style="text;strokeColor=none;fillColor=none;spacingLeft=4;spacingRight=4;overflow=hidden;rotatable=0;points=[[0,0.5],[1,0.5]];portConstraint=eastwest;fontSize=12;" vertex="1" parent="EzbBKyo-ywwA_1F8Rt0_-1">
          <mxGeometry y="266" width="170" height="30" as="geometry" />
        </mxCell>
        <mxCell id="EzbBKyo-ywwA_1F8Rt0_-9" value="BIBLIOTECAS" style="swimlane;fontStyle=0;childLayout=stackLayout;horizontal=1;startSize=26;horizontalStack=0;resizeParent=1;resizeParentMax=0;resizeLast=0;collapsible=1;marginBottom=0;align=center;fontSize=14;strokeColor=default;fillColor=none;" vertex="1" parent="1">
          <mxGeometry x="720" y="45" width="160" height="146" as="geometry" />
        </mxCell>
        <mxCell id="EzbBKyo-ywwA_1F8Rt0_-10" value="IDBIBLIOTECA" style="text;strokeColor=none;fillColor=none;spacingLeft=4;spacingRight=4;overflow=hidden;rotatable=0;points=[[0,0.5],[1,0.5]];portConstraint=eastwest;fontSize=12;" vertex="1" parent="EzbBKyo-ywwA_1F8Rt0_-9">
          <mxGeometry y="26" width="160" height="30" as="geometry" />
        </mxCell>
        <mxCell id="EzbBKyo-ywwA_1F8Rt0_-16" value="IDUSUARIO" style="text;strokeColor=none;fillColor=none;spacingLeft=4;spacingRight=4;overflow=hidden;rotatable=0;points=[[0,0.5],[1,0.5]];portConstraint=eastwest;fontSize=12;" vertex="1" parent="EzbBKyo-ywwA_1F8Rt0_-9">
          <mxGeometry y="56" width="160" height="30" as="geometry" />
        </mxCell>
        <mxCell id="EzbBKyo-ywwA_1F8Rt0_-15" value="NOMBREBB" style="text;strokeColor=none;fillColor=none;spacingLeft=4;spacingRight=4;overflow=hidden;rotatable=0;points=[[0,0.5],[1,0.5]];portConstraint=eastwest;fontSize=12;" vertex="1" parent="EzbBKyo-ywwA_1F8Rt0_-9">
          <mxGeometry y="86" width="160" height="30" as="geometry" />
        </mxCell>
        <mxCell id="EzbBKyo-ywwA_1F8Rt0_-38" value="FECHACREACION" style="text;strokeColor=none;fillColor=none;spacingLeft=4;spacingRight=4;overflow=hidden;rotatable=0;points=[[0,0.5],[1,0.5]];portConstraint=eastwest;fontSize=12;" vertex="1" parent="EzbBKyo-ywwA_1F8Rt0_-9">
          <mxGeometry y="116" width="160" height="30" as="geometry" />
        </mxCell>
        <mxCell id="EzbBKyo-ywwA_1F8Rt0_-19" value="BIBLIOTECASXUSUARIO" style="swimlane;fontStyle=0;childLayout=stackLayout;horizontal=1;startSize=26;horizontalStack=0;resizeParent=1;resizeParentMax=0;resizeLast=0;collapsible=1;marginBottom=0;align=center;fontSize=14;strokeColor=default;fillColor=none;" vertex="1" parent="1">
          <mxGeometry x="900" y="410" width="210" height="86" as="geometry" />
        </mxCell>
        <mxCell id="EzbBKyo-ywwA_1F8Rt0_-20" value="PK Y FK IDBIBLIOTECA" style="text;strokeColor=none;fillColor=none;spacingLeft=4;spacingRight=4;overflow=hidden;rotatable=0;points=[[0,0.5],[1,0.5]];portConstraint=eastwest;fontSize=12;" vertex="1" parent="EzbBKyo-ywwA_1F8Rt0_-19">
          <mxGeometry y="26" width="210" height="30" as="geometry" />
        </mxCell>
        <mxCell id="EzbBKyo-ywwA_1F8Rt0_-21" value="PK Y FK IDUSUARIO" style="text;strokeColor=none;fillColor=none;spacingLeft=4;spacingRight=4;overflow=hidden;rotatable=0;points=[[0,0.5],[1,0.5]];portConstraint=eastwest;fontSize=12;" vertex="1" parent="EzbBKyo-ywwA_1F8Rt0_-19">
          <mxGeometry y="56" width="210" height="30" as="geometry" />
        </mxCell>
        <mxCell id="EzbBKyo-ywwA_1F8Rt0_-25" value="" style="edgeStyle=entityRelationEdgeStyle;fontSize=12;html=1;endArrow=ERone;endFill=1;rounded=0;" edge="1" parent="1" source="EzbBKyo-ywwA_1F8Rt0_-21" target="EzbBKyo-ywwA_1F8Rt0_-2">
          <mxGeometry width="100" height="100" relative="1" as="geometry">
            <mxPoint x="970" y="250" as="sourcePoint" />
            <mxPoint x="1070" y="150" as="targetPoint" />
          </mxGeometry>
        </mxCell>
        <mxCell id="EzbBKyo-ywwA_1F8Rt0_-26" value="" style="edgeStyle=entityRelationEdgeStyle;fontSize=12;html=1;endArrow=ERone;endFill=1;rounded=0;" edge="1" parent="1" source="EzbBKyo-ywwA_1F8Rt0_-10" target="EzbBKyo-ywwA_1F8Rt0_-20">
          <mxGeometry width="100" height="100" relative="1" as="geometry">
            <mxPoint x="1159.9999999999998" y="199" as="sourcePoint" />
            <mxPoint x="1250.0000000000002" y="61" as="targetPoint" />
          </mxGeometry>
        </mxCell>
        <mxCell id="EzbBKyo-ywwA_1F8Rt0_-27" value="LIBROSXBIBLIOTECA" style="swimlane;fontStyle=0;childLayout=stackLayout;horizontal=1;startSize=26;horizontalStack=0;resizeParent=1;resizeParentMax=0;resizeLast=0;collapsible=1;marginBottom=0;align=center;fontSize=14;strokeColor=default;fillColor=none;" vertex="1" parent="1">
          <mxGeometry x="550" y="341" width="160" height="86" as="geometry" />
        </mxCell>
        <mxCell id="EzbBKyo-ywwA_1F8Rt0_-28" value="IDBIBLIOTECA" style="text;strokeColor=none;fillColor=none;spacingLeft=4;spacingRight=4;overflow=hidden;rotatable=0;points=[[0,0.5],[1,0.5]];portConstraint=eastwest;fontSize=12;" vertex="1" parent="EzbBKyo-ywwA_1F8Rt0_-27">
          <mxGeometry y="26" width="160" height="30" as="geometry" />
        </mxCell>
        <mxCell id="EzbBKyo-ywwA_1F8Rt0_-29" value="IDLIBRO" style="text;strokeColor=none;fillColor=none;spacingLeft=4;spacingRight=4;overflow=hidden;rotatable=0;points=[[0,0.5],[1,0.5]];portConstraint=eastwest;fontSize=12;" vertex="1" parent="EzbBKyo-ywwA_1F8Rt0_-27">
          <mxGeometry y="56" width="160" height="30" as="geometry" />
        </mxCell>
        <mxCell id="EzbBKyo-ywwA_1F8Rt0_-32" value="" style="edgeStyle=entityRelationEdgeStyle;fontSize=12;html=1;endArrow=ERzeroToMany;endFill=1;rounded=0;" edge="1" parent="1" source="EzbBKyo-ywwA_1F8Rt0_-10" target="EzbBKyo-ywwA_1F8Rt0_-28">
          <mxGeometry width="100" height="100" relative="1" as="geometry">
            <mxPoint x="600" y="280" as="sourcePoint" />
            <mxPoint x="700" y="180" as="targetPoint" />
          </mxGeometry>
        </mxCell>
        <mxCell id="EzbBKyo-ywwA_1F8Rt0_-33" value="" style="edgeStyle=entityRelationEdgeStyle;fontSize=12;html=1;endArrow=ERzeroToMany;endFill=1;rounded=0;" edge="1" parent="1" source="cFg4it5Un85z_77vq7gC-254" target="EzbBKyo-ywwA_1F8Rt0_-29">
          <mxGeometry width="100" height="100" relative="1" as="geometry">
            <mxPoint x="730" y="171" as="sourcePoint" />
            <mxPoint x="540" y="230" as="targetPoint" />
          </mxGeometry>
        </mxCell>
        <mxCell id="EzbBKyo-ywwA_1F8Rt0_-39" value="COMPRA" style="swimlane;fontStyle=0;childLayout=stackLayout;horizontal=1;startSize=26;horizontalStack=0;resizeParent=1;resizeParentMax=0;resizeLast=0;collapsible=1;marginBottom=0;align=center;fontSize=14;strokeColor=default;fillColor=none;" vertex="1" parent="1">
          <mxGeometry x="610" y="490" width="160" height="146" as="geometry" />
        </mxCell>
        <mxCell id="EzbBKyo-ywwA_1F8Rt0_-40" value="PRECIOCOMPRA" style="text;strokeColor=none;fillColor=none;spacingLeft=4;spacingRight=4;overflow=hidden;rotatable=0;points=[[0,0.5],[1,0.5]];portConstraint=eastwest;fontSize=12;" vertex="1" parent="EzbBKyo-ywwA_1F8Rt0_-39">
          <mxGeometry y="26" width="160" height="30" as="geometry" />
        </mxCell>
        <mxCell id="EzbBKyo-ywwA_1F8Rt0_-41" value="FECHAADQ" style="text;strokeColor=none;fillColor=none;spacingLeft=4;spacingRight=4;overflow=hidden;rotatable=0;points=[[0,0.5],[1,0.5]];portConstraint=eastwest;fontSize=12;" vertex="1" parent="EzbBKyo-ywwA_1F8Rt0_-39">
          <mxGeometry y="56" width="160" height="30" as="geometry" />
        </mxCell>
        <mxCell id="EzbBKyo-ywwA_1F8Rt0_-43" value="FECHAINIECTURA" style="text;strokeColor=none;fillColor=none;spacingLeft=4;spacingRight=4;overflow=hidden;rotatable=0;points=[[0,0.5],[1,0.5]];portConstraint=eastwest;fontSize=12;" vertex="1" parent="EzbBKyo-ywwA_1F8Rt0_-39">
          <mxGeometry y="86" width="160" height="30" as="geometry" />
        </mxCell>
        <mxCell id="EzbBKyo-ywwA_1F8Rt0_-42" value="FECHAIFINLECTURA" style="text;strokeColor=none;fillColor=none;spacingLeft=4;spacingRight=4;overflow=hidden;rotatable=0;points=[[0,0.5],[1,0.5]];portConstraint=eastwest;fontSize=12;" vertex="1" parent="EzbBKyo-ywwA_1F8Rt0_-39">
          <mxGeometry y="116" width="160" height="30" as="geometry" />
        </mxCell>
      </root>
    </mxGraphModel>
  </diagram>
</mxfile>
